<svg id="Layer_1" enable-background="new 0 0 256 256" height="512" viewBox="0 0 256 256" width="512" xmlns="http://www.w3.org/2000/svg"><path d="m127.9 53.999c-.828 0-1.5.671-1.5 1.5v145c0 .829.672 1.5 1.5 1.5s1.5-.671 1.5-1.5v-145c0-.829-.671-1.5-1.5-1.5z" fill="#3a312a"/><path d="m210.4 53.749c-.828 0-1.5.671-1.5 1.5v46.5h-162v-46.5c0-.829-.672-1.5-1.5-1.5s-1.5.671-1.5 1.5v48c0 .829.672 1.5 1.5 1.5h165c.828 0 1.5-.671 1.5-1.5v-48c0-.829-.671-1.5-1.5-1.5z" fill="#3a312a"/><path d="m210.4 151.249h-165c-.828 0-1.5.671-1.5 1.5v48c0 .829.672 1.5 1.5 1.5s1.5-.671 1.5-1.5v-46.5h162v46.5c0 .829.672 1.5 1.5 1.5s1.5-.671 1.5-1.5v-48c0-.829-.671-1.5-1.5-1.5z" fill="#3a312a"/><ellipse cx="127.9" cy="127.999" fill="#f8e4c8" rx="41.153" ry="41.153" transform="matrix(.973 -.23 .23 .973 -25.987 32.81)"/><path d="m127.9 85.347c-23.52 0-42.653 19.134-42.653 42.652 0 23.519 19.134 42.653 42.653 42.653s42.652-19.134 42.652-42.653c.001-23.519-19.133-42.652-42.652-42.652zm0 82.305c-21.865 0-39.653-17.788-39.653-39.653 0-21.864 17.788-39.652 39.653-39.652 21.864 0 39.652 17.788 39.652 39.652.001 21.865-17.787 39.653-39.652 39.653z" fill="#3a312a"/><path d="m127.9 98.093c-.828 0-1.5.671-1.5 1.5v3.553c0 .829.672 1.5 1.5 1.5s1.5-.671 1.5-1.5v-3.553c0-.829-.671-1.5-1.5-1.5z" fill="#3a312a"/><path d="m145.799 104.034c-.664-.496-1.604-.36-2.1.305l-2.125 2.848c-.495.664-.359 1.603.305 2.099.27.201.584.298.896.298.457 0 .908-.208 1.203-.603l2.125-2.848c.496-.664.36-1.603-.304-2.099z" fill="#3a312a"/><path d="m156.591 119.499c-.235-.794-1.07-1.245-1.865-1.011l-3.406 1.012c-.794.236-1.246 1.071-1.01 1.865.193.652.79 1.073 1.437 1.073.142 0 .286-.021.429-.063l3.406-1.012c.793-.235 1.245-1.07 1.009-1.864z" fill="#3a312a"/><path d="m155.103 136.423-3.335-1.226c-.78-.287-1.64.112-1.926.89-.285.778.113 1.64.891 1.925l3.335 1.226c.171.063.346.093.518.093.61 0 1.185-.376 1.408-.983.284-.778-.114-1.64-.891-1.925z" fill="#3a312a"/><path d="m114.226 107.187-2.124-2.848c-.495-.664-1.438-.8-2.099-.305-.664.495-.801 1.435-.306 2.099l2.124 2.848c.294.395.746.603 1.203.603.313 0 .627-.097.896-.298.664-.495.801-1.435.306-2.099z" fill="#3a312a"/><path d="m104.48 119.5-3.405-1.012c-.792-.234-1.63.216-1.865 1.011-.236.794.216 1.629 1.01 1.865l3.405 1.012c.143.042.287.063.429.063.647 0 1.243-.421 1.437-1.073.236-.794-.217-1.629-1.011-1.866z" fill="#3a312a"/><path d="m105.958 136.087c-.287-.778-1.148-1.177-1.926-.89l-3.335 1.226c-.777.286-1.176 1.147-.891 1.925.224.607.797.983 1.408.983.172 0 .347-.03.518-.093l3.335-1.226c.778-.285 1.176-1.147.891-1.925z" fill="#3a312a"/><path d="m126.998 110.845c-8.728.463-15.737 7.863-15.737 16.611 0 4.213 1.579 8.064 4.163 10.99 2.453 2.775 4.002 6.184 4.646 9.804h15.656c.644-3.62 2.202-7.029 4.646-9.794 2.594-2.936 4.163-6.777 4.163-11.001 0-9.481-7.944-17.113-17.537-16.61z" fill="#d5de58"/><path d="m140.38 114.303c-3.646-3.46-8.431-5.22-13.461-4.956-9.461.502-17.157 8.625-17.157 18.109 0 4.415 1.612 8.67 4.539 11.984 2.194 2.483 3.679 5.62 4.293 9.074.127.716.749 1.237 1.477 1.237h15.656c.727 0 1.35-.521 1.477-1.237.612-3.444 2.097-6.578 4.293-9.063 2.927-3.313 4.538-7.573 4.538-11.994-.001-5.022-2.009-9.694-5.655-13.154zm-1.132 23.161c-2.294 2.596-3.92 5.786-4.743 9.287h-13.213c-.824-3.51-2.45-6.704-4.743-9.297-2.442-2.765-3.787-6.315-3.787-9.998 0-7.915 6.422-14.695 14.314-15.113 4.204-.221 8.195 1.248 11.239 4.136 3.043 2.888 4.719 6.787 4.719 10.977 0 3.69-1.345 7.244-3.786 10.008z" fill="#3a312a"/><path d="m135.672 148.255h-15.544c-1.68 0-3.042 1.362-3.042 3.042v2.067c0 1.68 1.362 3.042 3.042 3.042h15.544c1.68 0 3.042-1.362 3.042-3.042v-2.067c0-1.681-1.362-3.042-3.042-3.042z" fill="#87796f"/><path d="m135.672 146.755h-15.544c-2.504 0-4.541 2.037-4.541 4.542v2.067c0 2.504 2.037 4.542 4.541 4.542h15.544c2.505 0 4.542-2.038 4.542-4.542v-2.067c0-2.505-2.037-4.542-4.542-4.542zm1.542 6.609c0 .85-.691 1.542-1.542 1.542h-15.544c-.85 0-1.541-.692-1.541-1.542v-2.067c0-.85.691-1.542 1.541-1.542h15.544c.851 0 1.542.691 1.542 1.542z" fill="#3a312a"/><path d="m229.361 180.499h-38.15c-5.544 0-10.039 4.495-10.039 10.039v38.862c0 5.544 4.495 10.039 10.039 10.039h38.15c5.544 0 10.039-4.495 10.039-10.039v-38.862c0-5.544-4.494-10.039-10.039-10.039z" fill="#f16c7a"/><path d="m229.361 178.999h-38.149c-6.362 0-11.539 5.177-11.539 11.54v38.861c0 6.363 5.177 11.539 11.539 11.539h38.149c6.362 0 11.539-5.176 11.539-11.539v-38.861c0-6.363-5.176-11.54-11.539-11.54zm8.539 50.401c0 4.708-3.831 8.539-8.539 8.539h-38.149c-4.708 0-8.539-3.831-8.539-8.539v-38.861c0-4.708 3.831-8.54 8.539-8.54h38.149c4.708 0 8.539 3.831 8.539 8.54z" fill="#3a312a"/><path d="m146.975 180.499h-38.15c-5.544 0-10.039 4.495-10.039 10.039v38.862c0 5.544 4.495 10.039 10.039 10.039h38.15c5.544 0 10.039-4.495 10.039-10.039v-38.862c0-5.544-4.495-10.039-10.039-10.039z" fill="#f16c7a"/><path d="m146.975 178.999h-38.149c-6.362 0-11.539 5.177-11.539 11.54v13.334c0 .829.672 1.5 1.5 1.5s1.5-.671 1.5-1.5v-13.334c0-4.708 3.831-8.54 8.539-8.54h38.149c4.708 0 8.539 3.831 8.539 8.54v38.861c0 4.708-3.831 8.539-8.539 8.539h-38.149c-4.708 0-8.539-3.831-8.539-8.539v-12.274c0-.829-.672-1.5-1.5-1.5s-1.5.671-1.5 1.5v12.274c0 6.363 5.177 11.539 11.539 11.539h38.149c6.362 0 11.539-5.176 11.539-11.539v-38.861c0-6.363-5.177-11.54-11.539-11.54z" fill="#3a312a"/><path d="m64.589 180.499h-38.15c-5.544 0-10.039 4.495-10.039 10.039v38.862c0 5.544 4.495 10.039 10.039 10.039h38.15c5.544 0 10.039-4.495 10.039-10.039v-38.862c0-5.544-4.495-10.039-10.039-10.039z" fill="#f16c7a"/><path d="m64.589 178.999h-38.15c-6.362 0-11.539 5.177-11.539 11.54v38.861c0 6.363 5.177 11.539 11.539 11.539h38.149c6.362 0 11.539-5.176 11.539-11.539v-38.861c.001-6.363-5.176-11.54-11.538-11.54zm8.539 50.401c0 4.708-3.831 8.539-8.539 8.539h-38.15c-4.708 0-8.539-3.831-8.539-8.539v-38.861c0-4.708 3.831-8.54 8.539-8.54h38.149c4.708 0 8.539 3.831 8.539 8.54v38.861z" fill="#3a312a"/><path d="m229.361 16.559h-38.15c-5.544 0-10.039 4.495-10.039 10.039v38.862c0 5.544 4.495 10.039 10.039 10.039h38.15c5.544 0 10.039-4.495 10.039-10.039v-38.862c0-5.544-4.494-10.039-10.039-10.039z" fill="#8ac5dc"/><path d="m229.361 15.059h-38.149c-6.362 0-11.539 5.176-11.539 11.539v38.862c0 6.363 5.177 11.539 11.539 11.539h38.149c6.362 0 11.539-5.176 11.539-11.539v-38.862c0-6.363-5.176-11.539-11.539-11.539zm8.539 50.401c0 4.708-3.831 8.539-8.539 8.539h-38.149c-4.708 0-8.539-3.831-8.539-8.539v-38.862c0-4.708 3.831-8.539 8.539-8.539h38.149c4.708 0 8.539 3.831 8.539 8.539z" fill="#3a312a"/><path d="m146.975 16.559h-38.15c-5.544 0-10.039 4.495-10.039 10.039v38.862c0 5.544 4.495 10.039 10.039 10.039h38.15c5.544 0 10.039-4.495 10.039-10.039v-38.862c0-5.544-4.495-10.039-10.039-10.039z" fill="#8ac5dc"/><path d="m146.975 15.059h-38.149c-6.362 0-11.539 5.176-11.539 11.539v38.862c0 6.363 5.177 11.539 11.539 11.539h38.149c6.362 0 11.539-5.176 11.539-11.539v-38.862c0-6.363-5.177-11.539-11.539-11.539zm8.539 50.401c0 4.708-3.831 8.539-8.539 8.539h-38.149c-4.708 0-8.539-3.831-8.539-8.539v-38.862c0-4.708 3.831-8.539 8.539-8.539h38.149c4.708 0 8.539 3.831 8.539 8.539z" fill="#3a312a"/><path d="m64.589 16.559h-38.15c-5.544 0-10.039 4.495-10.039 10.039v38.862c0 5.544 4.495 10.039 10.039 10.039h38.15c5.544 0 10.039-4.495 10.039-10.039v-38.862c0-5.544-4.495-10.039-10.039-10.039z" fill="#8ac5dc"/><path d="m64.589 15.059h-14.534c-.828 0-1.5.671-1.5 1.5s.672 1.5 1.5 1.5h14.534c4.708 0 8.539 3.831 8.539 8.539v38.862c0 4.708-3.831 8.539-8.539 8.539h-38.15c-4.708 0-8.539-3.831-8.539-8.539v-38.862c0-4.708 3.831-8.539 8.539-8.539h10.806c.828 0 1.5-.671 1.5-1.5s-.672-1.5-1.5-1.5h-10.806c-6.362 0-11.539 5.176-11.539 11.539v38.862c0 6.363 5.177 11.539 11.539 11.539h38.149c6.362 0 11.539-5.176 11.539-11.539v-38.862c.001-6.363-5.176-11.539-11.538-11.539z" fill="#3a312a"/><path d="m47.37 114.219c-.974 11.564-13.024 13.39-13.024 13.39 10.347.487 12.925 14.059 12.925 14.059.221-9.677 13.321-14.202 13.321-14.202-9.814-.588-13.222-13.247-13.222-13.247z" fill="#d7e057"/><path d="m60.682 125.968c-8.604-.514-11.833-12.024-11.864-12.14-.191-.702-.851-1.17-1.584-1.101-.725.066-1.298.642-1.359 1.367-.859 10.215-11.313 11.964-11.754 12.033-.763.115-1.313.79-1.273 1.56s.657 1.384 1.428 1.421c9.028.425 11.499 12.718 11.523 12.842.138.711.76 1.217 1.473 1.217.042 0 .084-.002.126-.005.765-.064 1.357-.693 1.375-1.459.193-8.509 12.191-12.777 12.313-12.819.676-.235 1.092-.914.994-1.622-.102-.71-.685-1.251-1.398-1.294zm-13.567 10.346c-1.356-3.13-3.709-6.907-7.588-8.876 2.932-1.405 6.409-3.914 8.202-8.273 1.552 3.071 4.2 6.88 8.335 8.722-3.007 1.64-6.922 4.405-8.949 8.427z" fill="#3a312a"/><path d="m25.671 131.2c-.689 8.179-9.213 9.471-9.213 9.471 7.318.344 9.142 9.944 9.142 9.944.156-6.844 9.422-10.045 9.422-10.045-6.94-.416-9.351-9.37-9.351-9.37z" fill="#d7e057"/><path d="m35.112 139.071c-5.766-.345-7.972-8.185-7.994-8.264-.19-.702-.859-1.165-1.581-1.102-.726.065-1.3.643-1.361 1.368-.578 6.871-7.646 8.066-7.941 8.113-.763.115-1.313.79-1.273 1.561.04.77.657 1.384 1.428 1.421 6.034.284 7.723 8.644 7.738 8.726.136.712.759 1.22 1.473 1.22.041 0 .083-.001.125-.005.765-.063 1.358-.694 1.376-1.461.13-5.709 8.331-8.634 8.412-8.662.676-.234 1.093-.913.996-1.622-.099-.708-.684-1.25-1.398-1.293zm-9.585 6.796c-.924-1.886-2.34-3.947-4.446-5.28 1.855-1.041 3.697-2.63 4.87-4.916 1.058 1.873 2.654 3.954 4.941 5.223-1.849 1.101-3.989 2.74-5.365 4.973z" fill="#3a312a"/><path d="m25.671 104.542c-.689 8.179-9.213 9.471-9.213 9.471 7.318.344 9.142 9.944 9.142 9.944.156-6.845 9.422-10.045 9.422-10.045-6.94-.416-9.351-9.37-9.351-9.37z" fill="#d7e057"/><g fill="#3a312a"><path d="m35.112 112.414c-5.766-.345-7.972-8.186-7.994-8.265-.19-.702-.859-1.164-1.581-1.102-.726.065-1.3.642-1.361 1.368-.578 6.871-7.646 8.067-7.941 8.114-.763.115-1.313.79-1.273 1.56s.657 1.384 1.428 1.421c6.034.284 7.723 8.644 7.738 8.726.136.713.759 1.22 1.473 1.22.041 0 .083-.001.125-.005.765-.063 1.358-.694 1.376-1.461.13-5.71 8.331-8.634 8.412-8.662.676-.234 1.093-.913.996-1.622-.099-.708-.684-1.249-1.398-1.292zm-9.585 6.795c-.924-1.885-2.34-3.947-4.446-5.28 1.855-1.041 3.697-2.629 4.87-4.916 1.058 1.873 2.654 3.954 4.941 5.223-1.849 1.101-3.989 2.741-5.365 4.973z"/><path d="m145.4 32.999h-35c-.828 0-1.5.671-1.5 1.5s.672 1.5 1.5 1.5h35c.828 0 1.5-.671 1.5-1.5s-.671-1.5-1.5-1.5z"/><path d="m145.4 55.499h-35c-.828 0-1.5.671-1.5 1.5s.672 1.5 1.5 1.5h35c.828 0 1.5-.671 1.5-1.5s-.671-1.5-1.5-1.5z"/><path d="m62.4 32.999h-35c-.828 0-1.5.671-1.5 1.5s.672 1.5 1.5 1.5h35c.828 0 1.5-.671 1.5-1.5s-.672-1.5-1.5-1.5z"/><path d="m62.4 55.499h-35c-.828 0-1.5.671-1.5 1.5s.672 1.5 1.5 1.5h35c.828 0 1.5-.671 1.5-1.5s-.672-1.5-1.5-1.5z"/><path d="m227.4 32.999h-35c-.828 0-1.5.671-1.5 1.5s.672 1.5 1.5 1.5h35c.828 0 1.5-.671 1.5-1.5s-.671-1.5-1.5-1.5z"/><path d="m227.4 55.499h-35c-.828 0-1.5.671-1.5 1.5s.672 1.5 1.5 1.5h35c.828 0 1.5-.671 1.5-1.5s-.671-1.5-1.5-1.5z"/><path d="m145.4 198.999h-35c-.828 0-1.5.671-1.5 1.5s.672 1.5 1.5 1.5h35c.828 0 1.5-.671 1.5-1.5s-.671-1.5-1.5-1.5z"/><path d="m145.4 221.499h-35c-.828 0-1.5.671-1.5 1.5s.672 1.5 1.5 1.5h35c.828 0 1.5-.671 1.5-1.5s-.671-1.5-1.5-1.5z"/><path d="m62.4 198.999h-35c-.828 0-1.5.671-1.5 1.5s.672 1.5 1.5 1.5h35c.828 0 1.5-.671 1.5-1.5s-.672-1.5-1.5-1.5z"/><path d="m62.4 221.499h-35c-.828 0-1.5.671-1.5 1.5s.672 1.5 1.5 1.5h35c.828 0 1.5-.671 1.5-1.5s-.672-1.5-1.5-1.5z"/><path d="m227.4 198.999h-35c-.828 0-1.5.671-1.5 1.5s.672 1.5 1.5 1.5h35c.828 0 1.5-.671 1.5-1.5s-.671-1.5-1.5-1.5z"/><path d="m227.4 221.499h-35c-.828 0-1.5.671-1.5 1.5s.672 1.5 1.5 1.5h35c.828 0 1.5-.671 1.5-1.5s-.671-1.5-1.5-1.5z"/></g><path d="m229.36 181.999h-15c4.71 0 8.54 3.83 8.54 8.54v8.46h4.5c.83 0 1.5.67 1.5 1.5s-.67 1.5-1.5 1.5h-4.5v19.5h4.5c.83 0 1.5.67 1.5 1.5s-.67 1.5-1.5 1.5h-4.5v4.9c0 4.71-3.83 8.54-8.54 8.54h15c4.71 0 8.54-3.83 8.54-8.54v-38.86c0-4.71-3.83-8.54-8.54-8.54z" fill="#d34e5c"/><path d="m229.36 18.059h-15c4.71 0 8.54 3.83 8.54 8.54v6.4h4.5c.83 0 1.5.67 1.5 1.5s-.67 1.5-1.5 1.5h-4.5v19.5h4.5c.83 0 1.5.67 1.5 1.5s-.67 1.5-1.5 1.5h-4.5v6.96c0 4.71-3.83 8.54-8.54 8.54h15c4.71 0 8.54-3.83 8.54-8.54v-38.86c0-4.71-3.83-8.54-8.54-8.54z" fill="#6ca8bf"/></svg>