<svg height="512pt" viewBox="-10 0 511 512" width="512pt" xmlns="http://www.w3.org/2000/svg"><path d="m345.203125 504.460938c-.6875-10.804688 4.921875-34.449219-20.707031-34.449219h-174.269532c-26.222656 0-20.023437 23.644531-20.710937 34.449219zm0 0" fill="#d0cfd1"/><path d="m174.890625 394.558594h124.835937v75.457031h-124.835937zm0 0" fill="#fff4f1"/><path d="m275.605469 394.558594h24.121093v75.457031h-24.121093zm0 0" fill="#d0cfd1"/><path d="m447.378906 424.015625h-420.136718c-10.5625 0-19.203126-8.640625-19.203126-19.199219v-297.980468c0-10.558594 8.640626-19.199219 19.203126-19.199219h420.136718c10.5625 0 19.203125 8.640625 19.203125 19.199219v297.980468c0 10.558594-8.640625 19.199219-19.203125 19.199219zm0 0" fill="#fff4f1"/><path d="m447.378906 87.636719h-24.125c10.5625 0 19.203125 8.640625 19.203125 19.199219v297.980468c0 10.558594-8.640625 19.199219-19.203125 19.199219h24.125c10.5625 0 19.203125-8.640625 19.203125-19.199219v-297.980468c0-10.558594-8.640625-19.199219-19.203125-19.199219zm0 0" fill="#ecedef"/><path d="m8.039062 375.125v29.691406c0 10.558594 8.640626 19.199219 19.203126 19.199219h420.136718c10.5625 0 19.203125-8.640625 19.203125-19.199219v-29.691406zm0 0" fill="#4890e3"/><path d="m442.457031 375.125v29.691406c0 10.558594-8.640625 19.199219-19.203125 19.199219h24.125c10.5625 0 19.203125-8.640625 19.203125-19.199219v-29.691406zm0 0" fill="#2970d6"/><path d="m345.285156 87.636719h-318.042968c-10.5625 0-19.203126 8.640625-19.203126 19.199219v29.6875h359.605469" fill="#4890e3"/><path d="m174.859375 349.421875h-107.960937l3.8125-125.386719h100.335937zm0 0" fill="#f45a3c"/><path d="m171.046875 224.035156h-24.125l3.8125 125.386719h24.125zm0 0" fill="#e24a2a"/><path d="m484.378906 80.179688c0 40.117187-32.519531 72.636718-72.636718 72.636718-40.117188 0-72.640626-32.519531-72.640626-72.636718 0-40.117188 32.523438-72.640626 72.640626-72.640626 40.117187 0 72.636718 32.523438 72.636718 72.640626zm0 0" fill="#f9cd45"/><path d="m411.742188 7.539062c-4.113282 0-8.136719.359376-12.0625 1.015626 34.371093 5.746093 60.578124 35.617187 60.578124 71.625 0 36.003906-26.207031 65.875-60.578124 71.621093 3.925781.65625 7.949218 1.015625 12.0625 1.015625 40.117187 0 72.636718-32.519531 72.636718-72.636718 0-40.117188-32.519531-72.640626-72.636718-72.640626zm0 0" fill="#f8b53c"/><path d="m223.730469 180.351562h207.183593v59.195313h-207.183593zm0 0" fill="#fbecac"/><path d="m405.785156 180.351562h25.128906v59.195313h-25.128906zm0 0" fill="#f9cd45"/><path d="m171.046875 216.496094h-13.75v-36.722656c0-9.117188-7.417969-16.539063-16.539063-16.539063h-38.144531c-9.117187 0-16.535156 7.421875-16.535156 16.539063v36.722656h-15.367187c-4.074219 0-7.414063 3.238281-7.535157 7.308594l-1.460937 47.9375c-.125 4.160156 3.144531 7.636718 7.308594 7.761718 4.171874.128906 7.636718-3.144531 7.765624-7.304687l1.234376-40.628907h85.710937l3.355469 110.3125h-92.421875l1.199219-39.417968c.128906-4.164063-3.144532-7.640625-7.304688-7.765625-4.160156-.113281-7.640625 3.144531-7.765625 7.304687l-1.4375 47.191406c-.058594 2.035157.707031 4.011719 2.125 5.476563 1.421875 1.464844 3.371094 2.289063 5.410156 2.289063h107.964844c2.039063 0 3.992187-.824219 5.410156-2.289063s2.1875-3.441406 2.125-5.476563l-3.8125-125.390624c-.125-4.070313-3.460937-7.308594-7.535156-7.308594zm-69.894531-36.722656c0-.792969.671875-1.460938 1.460937-1.460938h38.144531c.792969 0 1.460938.671875 1.460938 1.460938v36.722656h-41.066406zm0 0"/><path d="m419.265625 83.429688v11.6875c0 8.148437 5.347656 11.113281 12.34375 11.113281 6.914063 0 12.347656-2.964844 12.347656-11.113281v-11.6875c0-8.148438-5.433593-11.109376-12.347656-11.109376-6.992187 0-12.34375 2.964844-12.34375 11.109376zm16.460937 0v11.6875c0 2.714843-1.5625 3.949218-4.117187 3.949218-2.550781 0-4.03125-1.234375-4.03125-3.949218v-11.6875c0-2.714844 1.480469-3.949219 4.03125-3.949219 2.554687 0 4.117187 1.234375 4.117187 3.949219zm0 0"/><path d="m394.082031 105.40625c0 2.058594 1.808594 4.363281 4.609375 4.363281 1.5625 0 3.125-.824219 3.703125-2.058593l28.96875-59.339844c.25-.492188.332031-1.070313.332031-1.5625 0-2.636719-2.550781-4.363282-4.855468-4.363282-1.484375 0-2.800782.65625-3.457032 2.058594l-28.890624 59.339844c-.246094.492188-.410157 1.070312-.410157 1.5625zm0 0"/><path d="m393.832031 79.726562c6.914063 0 12.347657-2.960937 12.347657-11.109374v-11.6875c0-8.148438-5.433594-11.113282-12.347657-11.113282-6.996093 0-12.34375 2.964844-12.34375 11.113282v11.6875c0 8.148437 5.347657 11.109374 12.34375 11.109374zm-4.03125-22.796874c0-2.714844 1.480469-3.949219 4.03125-3.949219 2.554688 0 4.117188 1.234375 4.117188 3.949219v11.6875c0 2.714843-1.5625 3.949218-4.117188 3.949218-2.550781 0-4.03125-1.234375-4.03125-3.949218zm0 0"/><path d="m491.917969 80.179688c0-44.210938-35.964844-80.179688-80.175781-80.179688-44.183594 0-80.132813 35.921875-80.175782 80.097656h-197.488281c-4.164063 0-7.539063 3.375-7.539063 7.539063 0 4.164062 3.375 7.539062 7.539063 7.539062h198.914063c2.382812 12.542969 7.695312 24.058594 15.203124 33.8125h-332.617187v-22.152343c0-6.429688 5.230469-11.660157 11.664063-11.660157h73.484374c4.164063 0 7.539063-3.375 7.539063-7.539062 0-4.164063-3.375-7.539063-7.539063-7.539063h-73.484374c-14.746094 0-26.742188 11.996094-26.742188 26.738282v29.691406.007812 238.582032.007812 29.691406c0 14.742188 11.996094 26.738282 26.742188 26.738282h140.109374v30.921874h-17.125c-9.230468 0-16.375 2.558594-21.238281 7.601563-7.796875 8.085937-7.371093 19.746094-7.058593 28.253906.078124 2.160157.15625 4.199219.0625 5.648438-.132813 2.078125.601562 4.121093 2.023437 5.640625 1.425781 1.515625 3.417969 2.378906 5.5 2.378906h215.6875c2.085937 0 4.074219-.863281 5.5-2.378906 1.425781-1.519532 2.15625-3.5625 2.023437-5.640625-.089843-1.421875-.039062-3.390625.015626-5.472657.226562-8.617187.535156-20.417968-7.371094-28.535156-4.847656-4.976562-11.871094-7.496094-20.875-7.496094h-17.226563v-30.921874h140.109375c14.746094 0 26.742188-11.996094 26.742188-26.738282v-274.34375c11.121094-13.765625 17.796875-31.261718 17.796875-50.292968zm-32.875 287.40625h-443.464844v-223.519532h347.785156c13.457031 10.214844 30.21875 16.289063 48.378907 16.289063 17.679687 0 34.03125-5.761719 47.300781-15.492188zm-47.300781-352.507813c35.898437 0 65.101562 29.203125 65.101562 65.101563 0 35.894531-29.203125 65.097656-65.101562 65.097656-35.894532 0-65.101563-29.203125-65.101563-65.097656 0-35.898438 29.207031-65.101563 65.101563-65.101563zm-77.171876 465.417969c3.25 3.335937 3.277344 10.394531 3.132813 16.425781h-200.734375c-.210938-5.96875-.320312-13.0625 2.875-16.378906 1.914062-1.984375 5.40625-2.988281 10.382812-2.988281h174.269532c4.78125-.003907 8.171875.988281 10.074218 2.941406zm-42.382812-18.023438h-109.757812v-30.917968h109.757812zm166.855469-57.65625c0 6.429688-5.234375 11.660156-11.664063 11.660156h-420.136718c-6.429688 0-11.664063-5.230468-11.664063-11.660156v-22.152344h443.464844zm0 0"/><path d="m216.191406 180.351562v59.195313c0 4.164063 3.375 7.539063 7.539063 7.539063h207.183593c4.164063 0 7.539063-3.375 7.539063-7.539063v-59.195313c0-4.164062-3.375-7.539062-7.539063-7.539062h-207.183593c-4.164063 0-7.539063 3.375-7.539063 7.539062zm15.078125 7.539063h192.105469v44.117187h-192.105469zm0 0"/><path d="m221.492188 267.742188c-4.164063 0-7.539063 3.375-7.539063 7.539062s3.375 7.539062 7.539063 7.539062h213.339843c4.164063 0 7.539063-3.375 7.539063-7.539062s-3.375-7.539062-7.539063-7.539062zm0 0"/><path d="m434.832031 303.476562h-213.339843c-4.164063 0-7.539063 3.375-7.539063 7.539063s3.375 7.539063 7.539063 7.539063h213.339843c4.164063 0 7.539063-3.375 7.539063-7.539063s-3.375-7.539063-7.539063-7.539063zm0 0"/><path d="m434.832031 339.210938h-213.339843c-4.164063 0-7.539063 3.375-7.539063 7.539062s3.375 7.539062 7.539063 7.539062h213.339843c4.164063 0 7.539063-3.375 7.539063-7.539062s-3.375-7.539062-7.539063-7.539062zm0 0"/></svg>