<svg height="512pt" viewBox="-41 0 512 512.00046" width="512pt" xmlns="http://www.w3.org/2000/svg"><path d="m357.699219 475.113281c0 16.183594-13.121094 29.304688-29.304688 29.304688h-291.507812c-16.183594 0-29.304688-13.109375-29.304688-29.304688 0-73.800781 59.78125-133.925781 133.917969-133.925781h82.28125c74.125 0 133.917969 60.125 133.917969 133.925781zm0 0" fill="#fff5f4"/><path d="m42.960938 475.113281c0 16.195313 13.121093 29.304688 29.304687 29.304688h-35.378906c-16.183594 0-29.304688-13.109375-29.304688-29.304688 0-73.800781 59.78125-133.925781 133.917969-133.925781h35.378906c-74.136718 0-133.917968 60.125-133.917968 133.925781zm0 0" fill="#ebe0da"/><path d="m143.671875 244.46875v89.886719l38.96875 66.148437 38.96875-66.148437v-89.886719zm0 0" fill="#f2d1a5"/><path d="m200.332031 370.472656-17.691406 30.03125-38.96875-66.148437v-89.886719h35.378906v89.886719zm0 0" fill="#f2bb88"/><path d="m197.476562 446.425781h-29.675781c-5.996093 0-10.902343-4.90625-10.902343-10.902343v-25.4375c0-5.996094 4.90625-10.898438 10.902343-10.898438h29.675781c5.996094 0 10.902344 4.902344 10.902344 10.898438v25.4375c0 5.996093-4.90625 10.902343-10.902344 10.902343zm0 0" fill="#81b8fd"/><path d="m198.730469 446.425781h-32.75l-17.257813 57.996094h67.832032zm0 0" fill="#a0cafe"/><path d="m278.328125 46.996094c-52.539063-52.539063-137.714844-52.539063-190.253906 0-52.535157 52.535156-52.535157 137.714844 0 190.25 52.539062 52.535156 137.714843 52.535156 190.253906 0 52.535156-52.535156 52.535156-137.714844 0-190.25zm0 0" fill="#c0dbff"/><path d="m122.792969 202.535156c16.167969 16.167969 37.625 25.074219 60.417969 25.074219 22.792968 0 44.246093-8.90625 60.417968-25.074219 16.167969-16.171875 25.074219-37.625 25.074219-60.417968 0-47.140626-38.351563-85.492188-85.492187-85.492188-22.792969 0-44.25 8.90625-60.417969 25.074219s-25.074219 37.625-25.074219 60.417969c0 22.792968 8.90625 44.246093 25.074219 60.417968zm0 0" fill="#fff5f4"/><path d="m412.230469 371.148438c-13.921875 13.921874-36.5 13.921874-50.425781 0l-74.324219-74.328126c-1.808594-1.808593-1.808594-4.738281 0-6.546874l43.875-43.878907c1.808593-1.808593 4.738281-1.808593 6.546875 0l74.328125 74.328125c13.925781 13.925782 13.925781 36.5 0 50.425782zm0 0" fill="#ff956a"/><path d="m126.074219 317.144531-30.886719 32.21875 24.117188 75.96875c3.429687 6.269531 12.234374 8.265625 18.515624 4.199219l44.820313-29.03125-48.5625-82.421875c-1.703125-2.886719-5.6875-3.351563-8.003906-.933594zm0 0" fill="#c8bebc"/><path d="m239.207031 317.144531 30.886719 32.21875-24.117188 75.96875c-3.429687 6.269531-12.234374 8.265625-18.515624 4.199219l-44.820313-29.03125 48.5625-82.421875c1.699219-2.886719 5.683594-3.351563 8.003906-.933594zm0 0" fill="#c8bebc"/><path d="m200.894531 225.777344c-5.75 1.214844-11.671875 1.832031-17.6875 1.832031-22.785156 0-44.246093-8.90625-60.410156-25.082031-16.171875-16.160156-25.078125-37.621094-25.078125-60.40625 0-22.796875 8.90625-44.253906 25.078125-60.417969 16.164063-16.175781 37.625-25.078125 60.410156-25.078125 6.054688 0 11.96875.636719 17.667969 1.839844-16.042969 3.375-30.808594 11.339844-42.695312 23.238281-16.175782 16.164063-25.082032 37.621094-25.082032 60.417969 0 22.785156 8.90625 44.246094 25.082032 60.40625 11.894531 11.910156 26.664062 19.875 42.714843 23.25zm0 0" fill="#ebe0da"/><path d="m412.234375 371.148438c-13.929687 13.917968-36.5 13.917968-50.429687 0l-74.328126-74.328126c-1.808593-1.808593-1.808593-4.738281 0-6.550781l20.984376-20.972656 65.191406 65.1875c13.089844 13.089844 33.832031 13.871094 47.839844 2.335937 3.125 11.867188.042968 25.027344-9.257813 34.328126zm0 0" fill="#ff7c48"/><path d="m111.84375 173.421875c-1.6875-3.832031-6.164062-5.570313-9.992188-3.882813-3.832031 1.6875-5.570312 6.164063-3.882812 9.996094 26.226562 59.539063 104.40625 74.972656 151.019531 28.359375 58.371094-58.371093 16.964844-158.851562-65.777343-158.851562-52.773438 0-96.054688 44.394531-92.914063 98.546875.242187 4.179687 3.816406 7.371094 8.007813 7.128906 4.179687-.242188 7.371093-3.828125 7.128906-8.007812-1.292969-22.382813 6.855468-43.785157 22.722656-59.652344 48.878906-48.878906 132.964844-14.183594 132.964844 55.058594 0 20.765624-8.117188 40.320312-22.851563 55.054687-38.695312 38.695313-104.269531 26.546875-126.425781-23.75zm0 0"/><path d="m417.59375 315.359375-74.328125-74.328125c-4.753906-4.75-12.46875-4.796875-17.265625 0l-16.53125 16.53125-20.546875-20.460938c51.460937-57.167968 48.609375-146.742187-10.148437-200.160156-3.09375-2.820312-7.894532-2.597656-10.707032.507813-2.820312 3.089843-2.597656 7.882812.507813 10.703125 85.335937 78.378906 30.480469 220.910156-85.367188 220.910156-70.277343 0-126.953125-56.878906-126.953125-126.941406 0-97.824219 105.578125-157.785156 189.171875-110.6875 3.648438 2.050781 8.277344.757812 10.328125-2.890625 2.054688-3.648438.757813-8.269531-2.890625-10.332031-53.480469-30.101563-123.4375-23.285157-170.144531 23.421874-74.1875 74.1875-44.8125 200.261719 53.371094 234.636719v30.742188c-2.9375-3.011719-7.871094-3.046875-10.875.070312l-34.429688 35.925781c-53.050781 20.429688-90.785156 71.941407-90.785156 132.105469 0 20.339844 16.546875 36.886719 36.886719 36.886719h291.507812c20.339844 0 36.886719-16.546875 36.886719-36.886719 0-25.28125-6.761719-50.105469-19.539062-71.789062-2.132813-3.609375-6.785157-4.800781-10.382813-2.679688-3.609375 2.132813-4.8125 6.773438-2.679687 10.382813 11.402343 19.347656 17.4375 41.515625 17.4375 64.085937 0 11.980469-9.742188 21.722657-21.722657 21.722657h-34.949219v-49.980469c0-4.1875-3.394531-7.582031-7.582031-7.582031s-7.582031 3.394531-7.582031 7.582031v49.980469h-56.125l-14.175781-46.125c4.8125-3.324219 7.976562-8.894532 7.976562-15.191407v-4.40625c7.246094 4.695313 13.511719 10.164063 24.019531 7.460938 7.558594-1.90625 12.238282-7.71875 13.222657-10.949219l21.640625-68.183594c15.113281 6.664063 28.890625 16.355469 40.65625 28.78125 2.882812 3.042969 7.671875 3.171875 10.714844.292969 3.042968-2.882813 3.175781-7.671875.292968-10.714844-14.878906-15.710937-32.648437-27.535156-52.179687-34.976562l-34.257813-35.742188c-3.007812-3.121093-7.941406-3.078125-10.875-.070312v-30.347657c19.507813-6.652343 34.664063-16.292968 49.007813-28.84375l20.550781 20.460938-16.632812 16.632812c-4.769532 4.769532-4.777344 12.484376 0 17.265626l74.328124 74.328124c27.375 27.375 73.8125 7.535157 73.8125-30.570312 0-11.554688-4.5-22.410156-12.664062-30.578125zm-266.339844-34.722656c20.429688 4.683593 42.117188 4.800781 62.773438.253906v51.402344s-31.359375 53.222656-31.386719 53.269531c-19.511719-33.109375-31.386719-53.269531-31.386719-53.269531zm49.542969 140.660156v14.222656c0 1.800781-1.519531 3.324219-3.316406 3.324219h-29.679688c-1.800781 0-3.316406-1.523438-3.316406-3.324219v-14.222656l18.15625-11.765625zm-71.558594-96.496094s43.183594 73.289063 43.183594 73.289063c-27.625 17.890625-18.96875 12.285156-38.726563 25.078125-2.507812 1.632812-6 .902343-7.449218-1.023438-.929688-2.929687-21.027344-66.261719-22.472656-70.789062 18.230468-19.011719 12.632812-13.171875 25.464843-26.554688zm13.828125 172.035157h-56.070312v-49.980469c0-4.1875-3.394532-7.582031-7.578125-7.582031-4.1875 0-7.582031 3.394531-7.582031 7.582031v49.980469h-34.949219c-11.980469 0-21.722657-9.742188-21.722657-21.722657 0-51.523437 30.992188-95.929687 75.308594-115.570312l21.609375 68.082031c2.609375 8.566406 17.582031 16.199219 29.863281 8.269531l7.378907-4.78125c0 4.375-.898438 13.109375 7.558593 19.304688zm15.820313 0 12.746093-42.828126h21.5l13.160157 42.828126zm77.15625-172.035157c13.097656 13.660157 6.121093 6.386719 25.464843 26.554688-1.457031 4.597656-21.550781 67.882812-22.472656 70.789062-1.449218 1.925781-4.921875 2.652344-7.449218 1.023438-19.746094-12.785157-11.128907-7.203125-38.726563-25.078125 0 0 32.6875-55.488282 43.183594-73.289063zm131.128906 40.992188-72.246094-72.246094 39.707031-39.707031 72.234376 72.246094c5.308593 5.296874 8.226562 12.351562 8.226562 19.851562 0 25.058594-30.351562 37.425781-47.921875 19.855469zm0 0"/></svg>