<svg height="512pt" viewBox="0 -6 512 512" width="512pt" xmlns="http://www.w3.org/2000/svg"><path d="m313.0625 467.027344h-114.125l35.449219-176.480469h43.226562zm0 0" fill="#62a6fd"/><path d="m270.292969 290.546875-35.441407 176.480469h-35.910156l35.441406-176.480469zm0 0" fill="#4394fb"/><path d="m346.550781 492.679688h-181.101562c-6.65625 0-12.054688-5.398438-12.054688-12.054688v-15.390625c0-6.660156 5.398438-12.058594 12.054688-12.058594h181.101562c6.65625 0 12.054688 5.398438 12.054688 12.058594v15.390625c0 6.65625-5.398438 12.054688-12.054688 12.054688zm0 0" fill="#81b8fd"/><path d="m201.363281 492.679688h-35.914062c-6.65625 0-12.054688-5.398438-12.054688-12.054688v-15.390625c0-6.660156 5.398438-12.058594 12.054688-12.058594h35.914062c-6.660156 0-12.058593 5.398438-12.058593 12.058594v15.390625c0 6.65625 5.398437 12.054688 12.058593 12.054688zm0 0" fill="#62a6fd"/><path d="m504.304688 26.195312v320.210938c0 10.21875-8.28125 18.5-18.5 18.5h-459.609376c-10.21875 0-18.5-8.28125-18.5-18.5v-320.210938c0-10.21875 8.28125-18.5 18.5-18.5h459.609376c10.21875 0 18.5 8.28125 18.5 18.5zm0 0" fill="#c0dbff"/><path d="m62.105469 364.90625h-35.910157c-10.21875 0-18.5-8.28125-18.5-18.5v-320.210938c0-10.21875 8.28125-18.5 18.5-18.5h35.910157c-10.21875 0-18.5 8.28125-18.5 18.5v320.210938c0 10.21875 8.28125 18.5 18.5 18.5zm0 0" fill="#a0cafe"/><path d="m504.304688 300.734375v45.671875c0 10.21875-8.28125 18.5-18.5 18.5h-459.609376c-10.21875 0-18.5-8.28125-18.5-18.5v-45.671875zm0 0" fill="#81b8fd"/><path d="m471.34375 332.820312c0 6.867188-5.570312 12.4375-12.441406 12.4375s-12.441406-5.570312-12.441406-12.4375c0-6.871093 5.570312-12.441406 12.441406-12.441406s12.441406 5.570313 12.441406 12.441406zm0 0" fill="#ffe046"/><path d="m418.5 332.820312c0 6.867188-5.570312 12.4375-12.441406 12.4375s-12.4375-5.570312-12.4375-12.4375c0-6.871093 5.566406-12.441406 12.4375-12.441406s12.441406 5.570313 12.441406 12.441406zm0 0" fill="#ffe046"/><path d="m62.105469 364.90625h-35.910157c-10.21875 0-18.5-8.28125-18.5-18.5v-45.671875h35.910157v45.671875c0 10.21875 8.28125 18.5 18.5 18.5zm0 0" fill="#62a6fd"/><path d="m62.105469 364.90625h-35.910157c-10.21875 0-18.5-8.28125-18.5-18.5v-45.671875h35.910157v45.671875c0 10.21875 8.28125 18.5 18.5 18.5zm0 0" fill="#62a6fd"/><path d="m121.992188 33.007812h157.148437c8.601563 0 15.578125 6.972657 15.578125 15.578126v212.53125c0 8.605468-6.976562 15.578124-15.578125 15.578124h-157.148437c-8.605469 0-15.578126-6.972656-15.578126-15.578124v-212.53125c0-8.605469 6.972657-15.578126 15.578126-15.578126zm0 0" fill="#fff5f4"/><path d="m405.585938 213.027344c0 35.164062-28.503907 63.667968-63.667969 63.667968-35.164063 0-63.671875-28.503906-63.671875-63.667968 0-35.164063 28.507812-63.671875 63.671875-63.671875 35.164062 0 63.667969 28.507812 63.667969 63.671875zm0 0" fill="#fff5f4"/><path d="m362.359375 273.339844c-6.421875 2.175781-13.296875 3.355468-20.449219 3.355468-35.160156 0-63.664062-28.503906-63.664062-63.667968 0-35.160156 28.503906-63.675782 63.664062-63.675782 7.152344 0 14.027344 1.179688 20.449219 3.355469-25.136719 8.507813-43.238281 32.300781-43.238281 60.320313 0 28.023437 18.101562 51.808594 43.238281 60.3125zm0 0" fill="#ebe0da"/><path d="m157.898438 276.695312h-35.910157c-8.597656 0-15.578125-6.976562-15.578125-15.574218v-212.539063c0-8.597656 6.980469-15.574219 15.578125-15.574219h35.910157c-8.597657 0-15.574219 6.976563-15.574219 15.574219v212.539063c0 8.597656 6.976562 15.574218 15.574219 15.574218zm0 0" fill="#ebe0da"/><g fill="#aedb81"><path d="m258.246094 96.761719h-61.804688c-6.066406 0-11.027344-4.964844-11.027344-11.03125v-12.292969c0-6.070312 4.960938-11.03125 11.027344-11.03125h61.804688c6.066406 0 11.03125 4.964844 11.03125 11.03125v12.292969c0 6.066406-4.964844 11.03125-11.03125 11.03125zm0 0"/><path d="m228.953125 172.027344h-32.511719c-6.066406 0-11.027344-4.960938-11.027344-11.027344v-12.296875c0-6.066406 4.960938-11.03125 11.027344-11.03125h32.511719c6.066406 0 11.03125 4.964844 11.03125 11.03125v12.296875c0 6.066406-4.964844 11.027344-11.03125 11.027344zm0 0"/><path d="m244.546875 247.296875h-48.105469c-6.066406 0-11.027344-4.960937-11.027344-11.027344v-12.296875c0-6.066406 4.960938-11.03125 11.027344-11.03125h48.105469c6.066406 0 11.027344 4.964844 11.027344 11.03125v12.296875c0 6.066407-4.960938 11.027344-11.027344 11.027344zm0 0"/></g><path d="m121.988281 25.3125c-12.828125 0-23.273437 10.433594-23.273437 23.269531v84.3125c0 4.246094 3.449218 7.695313 7.695312 7.695313 4.25 0 7.695313-3.449219 7.695313-7.695313v-84.3125c0-4.339843 3.542969-7.878906 7.882812-7.878906h157.148438c4.351562 0 7.878906 3.539063 7.878906 7.878906v118.890625c-21.921875 26.367188-22 64.628906 0 91.113282v2.535156c0 4.339844-3.527344 7.878906-7.878906 7.878906h-157.148438c-4.339843 0-7.882812-3.539062-7.882812-7.878906v-97.445313c0-4.257812-3.445313-7.695312-7.695313-7.695312-4.246094 0-7.695312 3.4375-7.695312 7.695312v97.445313c0 12.835937 10.445312 23.269531 23.273437 23.269531h157.148438c9.335937 0 17.402343-5.519531 21.097656-13.460937 55.441406 39.984374 131.445313-14.445313 109.375-80.554688-1.34375-4.023438-5.703125-6.199219-9.738281-4.855469-4.03125 1.34375-6.207032 5.707031-4.863282 9.738281 12.128907 36.253907-14.988281 73.742188-53.097656 73.742188-49.1875 0-75.101562-60.082031-39.5-95.585938 10.125-10.109374 24.101563-16.367187 39.5-16.367187 14.519532 0 28.277344 5.542969 38.753906 15.585937 3.070313 2.933594 7.941407 2.84375 10.878907-.226562 2.941406-3.066406 2.839843-7.941406-.226563-10.886719-24.425781-23.429687-61.457031-26.242187-88.90625-7.898437v-105.039063c0-12.835937-10.4375-23.269531-23.273437-23.269531zm0 0"/><path d="m196.441406 104.457031h61.804688c10.324218 0 18.726562-8.402343 18.726562-18.726562v-12.292969c0-10.328125-8.402344-18.726562-18.726562-18.726562h-61.804688c-10.324218 0-18.722656 8.398437-18.722656 18.726562v12.292969c0 10.324219 8.398438 18.726562 18.722656 18.726562zm-3.332031-31.019531c0-1.808594 1.527344-3.335938 3.332031-3.335938h61.804688c1.808594 0 3.335937 1.527344 3.335937 3.335938v12.292969c0 1.808593-1.527343 3.332031-3.335937 3.332031h-61.804688c-1.804687 0-3.332031-1.523438-3.332031-3.332031zm0 0"/><path d="m131.855469 72.878906h29.972656c4.25 0 7.695313-3.445312 7.695313-7.695312s-3.445313-7.695313-7.695313-7.695313h-29.972656c-4.25 0-7.695313 3.445313-7.695313 7.695313s3.445313 7.695312 7.695313 7.695312zm0 0"/><path d="m131.855469 101.675781h29.972656c4.25 0 7.695313-3.445312 7.695313-7.695312s-3.445313-7.695313-7.695313-7.695313h-29.972656c-4.25 0-7.695313 3.445313-7.695313 7.695313s3.445313 7.695312 7.695313 7.695312zm0 0"/><path d="m177.71875 161c0 10.324219 8.398438 18.722656 18.722656 18.722656h32.511719c10.328125 0 18.726563-8.398437 18.726563-18.722656v-12.296875c0-10.324219-8.398438-18.722656-18.726563-18.722656h-32.511719c-10.324218 0-18.722656 8.398437-18.722656 18.722656zm15.390625-12.296875c0-1.804687 1.527344-3.332031 3.332031-3.332031h32.511719c1.808594 0 3.335937 1.527344 3.335937 3.332031v12.296875c0 1.808594-1.527343 3.332031-3.335937 3.332031h-32.511719c-1.804687 0-3.332031-1.523437-3.332031-3.332031zm0 0"/><path d="m131.855469 148.148438h19.933593c4.25 0 7.695313-3.441407 7.695313-7.695313 0-4.25-3.445313-7.695313-7.695313-7.695313h-19.933593c-4.25 0-7.695313 3.445313-7.695313 7.695313 0 4.253906 3.445313 7.695313 7.695313 7.695313zm0 0"/><path d="m131.855469 176.945312h29.972656c4.25 0 7.695313-3.445312 7.695313-7.695312s-3.445313-7.695312-7.695313-7.695312h-29.972656c-4.25 0-7.695313 3.445312-7.695313 7.695312s3.445313 7.695312 7.695313 7.695312zm0 0"/><path d="m177.71875 236.269531c0 10.324219 8.398438 18.726563 18.722656 18.726563h48.105469c10.324219 0 18.722656-8.402344 18.722656-18.726563v-12.296875c0-10.324218-8.398437-18.722656-18.722656-18.722656h-48.105469c-10.324218 0-18.722656 8.398438-18.722656 18.722656zm15.390625-12.296875c0-1.808594 1.527344-3.335937 3.332031-3.335937h48.105469c1.804687 0 3.332031 1.527343 3.332031 3.335937v12.292969c0 1.808594-1.527344 3.335937-3.332031 3.335937h-48.105469c-1.804687 0-3.332031-1.527343-3.332031-3.335937zm0 0"/><path d="m131.855469 223.417969h29.972656c4.25 0 7.695313-3.445313 7.695313-7.695313s-3.445313-7.695312-7.695313-7.695312h-29.972656c-4.25 0-7.695313 3.445312-7.695313 7.695312s3.445313 7.695313 7.695313 7.695313zm0 0"/><path d="m131.855469 252.214844h16.914062c4.25 0 7.695313-3.445313 7.695313-7.695313s-3.445313-7.695312-7.695313-7.695312h-16.914062c-4.25 0-7.695313 3.445312-7.695313 7.695312s3.445313 7.695313 7.695313 7.695313zm0 0"/><path d="m341.914062 251.78125c4.253907 0 7.695313-3.445312 7.695313-7.695312v-23.363282h23.363281c4.253906 0 7.695313-3.445312 7.695313-7.695312 0-4.253906-3.441407-7.695313-7.695313-7.695313h-23.363281v-23.363281c0-4.253906-3.441406-7.695312-7.695313-7.695312-4.25 0-7.695312 3.441406-7.695312 7.695312v23.363281h-23.363281c-4.25 0-7.695313 3.441407-7.695313 7.695313 0 4.25 3.445313 7.695312 7.695313 7.695312h23.363281v23.363282c0 4.25 3.445312 7.695312 7.695312 7.695312zm0 0"/><path d="m7.695312 207.058594c4.246094 0 7.695313-3.449219 7.695313-7.695313v-173.167969c0-5.960937 4.84375-10.804687 10.804687-10.804687h259.488282c4.246094 0 7.695312-3.449219 7.695312-7.695313 0-4.246093-3.449218-7.695312-7.695312-7.695312h-259.488282c-14.445312 0-26.195312 11.75-26.195312 26.195312v173.167969c0 4.246094 3.449219 7.695313 7.695312 7.695313zm0 0"/><path d="m485.804688 0h-169.339844c-4.246094 0-7.695313 3.449219-7.695313 7.695312 0 4.246094 3.449219 7.695313 7.695313 7.695313h169.339844c5.960937 0 10.804687 4.84375 10.804687 10.804687v266.84375c-9.746094 0-468.785156 0-481.21875 0v-62.894531c0-4.25-3.449219-7.695312-7.695313-7.695312-4.246093 0-7.695312 3.445312-7.695312 7.695312v116.261719c0 14.445312 11.75 26.195312 26.195312 26.195312h183.859376l-14.644532 72.878907h-29.960937c-10.882813 0-19.75 8.867187-19.75 19.753906v15.390625c0 10.882812 8.867187 19.75 19.75 19.75h181.101562c10.882813 0 19.75-8.867188 19.75-19.75v-15.390625c0-10.886719-8.867187-19.753906-19.75-19.753906h-29.960937l-14.644532-72.878907h183.859376c14.445312 0 26.195312-11.75 26.195312-26.195312 0-6.203125 0-317.019531 0-320.210938 0-14.445312-11.75-26.195312-26.195312-26.195312zm-139.253907 460.871094c2.398438 0 4.359375 1.960937 4.359375 4.363281v15.390625c0 2.398438-1.960937 4.359375-4.359375 4.359375h-181.101562c-2.398438 0-4.359375-1.960937-4.359375-4.359375v-15.390625c0-2.402344 1.960937-4.363281 4.359375-4.363281zm-135.441406-15.390625 14.644531-72.878907h60.492188l14.644531 72.878907zm285.5-99.074219c0 5.960938-4.84375 10.804688-10.804687 10.804688-4.648438 0-449.328126 0-459.609376 0-5.960937 0-10.804687-4.84375-10.804687-10.804688v-37.976562h481.21875zm0 0"/><path d="m458.902344 352.953125c11.101562 0 20.136718-9.03125 20.136718-20.132813 0-11.105468-9.035156-20.136718-20.136718-20.136718-11.101563 0-20.136719 9.03125-20.136719 20.136718 0 11.101563 9.035156 20.132813 20.136719 20.132813zm0-24.878906c2.617187 0 4.746094 2.128906 4.746094 4.746093 0 2.613282-2.128907 4.742188-4.746094 4.742188-2.617188 0-4.746094-2.128906-4.746094-4.742188 0-2.617187 2.128906-4.746093 4.746094-4.746093zm0 0"/><path d="m406.058594 352.953125c11.101562 0 20.144531-9.03125 20.144531-20.132813 0-11.101562-9.042969-20.140624-20.144531-20.140624-11.101563 0-20.140625 9.039062-20.140625 20.140624 0 11.101563 9.039062 20.132813 20.140625 20.132813zm0-24.882813c2.617187 0 4.753906 2.132813 4.753906 4.75 0 2.617188-2.136719 4.742188-4.753906 4.742188-2.613282 0-4.75-2.125-4.75-4.742188 0-2.617187 2.136718-4.75 4.75-4.75zm0 0"/></svg>