<svg height="512pt" viewBox="0 -6 512 512" width="512pt" xmlns="http://www.w3.org/2000/svg"><path d="m314.828125 473.566406h-117.65625l36.542969-181.949218h44.570312zm0 0" fill="#62a6fd"/><path d="m270.734375 291.617188-36.535156 181.949218h-37.027344l36.539063-181.949218zm0 0" fill="#4394fb"/><path d="m349.355469 500.015625h-186.710938c-6.863281 0-12.429687-5.566406-12.429687-12.429687v-15.867188c0-6.867188 5.566406-12.429688 12.429687-12.429688h186.710938c6.863281 0 12.429687 5.5625 12.429687 12.429688v15.867188c0 6.863281-5.566406 12.429687-12.429687 12.429687zm0 0" fill="#81b8fd"/><path d="m199.667969 500.015625h-37.023438c-6.867187 0-12.429687-5.566406-12.429687-12.429687v-15.867188c0-6.867188 5.5625-12.429688 12.429687-12.429688h37.023438c-6.863281 0-12.429688 5.5625-12.429688 12.429688v15.867188c0 6.863281 5.566407 12.429687 12.429688 12.429687zm0 0" fill="#62a6fd"/><path d="m512 19.074219v330.132812c0 10.535157-8.535156 19.074219-19.074219 19.074219h-473.851562c-10.539063 0-19.074219-8.539062-19.074219-19.074219v-330.132812c0-10.539063 8.535156-19.074219 19.074219-19.074219h473.851562c10.539063 0 19.074219 8.535156 19.074219 19.074219zm0 0" fill="#c0dbff"/><path d="m56.097656 368.28125h-37.023437c-10.539063 0-19.074219-8.539062-19.074219-19.074219v-330.132812c0-10.539063 8.535156-19.074219 19.074219-19.074219h37.023437c-10.535156 0-19.074218 8.535156-19.074218 19.074219v330.132812c0 10.535157 8.539062 19.074219 19.074218 19.074219zm0 0" fill="#a0cafe"/><path d="m512 302.117188v47.089843c0 10.535157-8.535156 19.074219-19.074219 19.074219h-473.851562c-10.539063 0-19.074219-8.539062-19.074219-19.074219v-47.089843zm0 0" fill="#81b8fd"/><path d="m478.015625 335.199219c0 7.085937-5.742187 12.828125-12.824219 12.828125-7.085937 0-12.828125-5.742188-12.828125-12.828125 0-7.082031 5.742188-12.824219 12.828125-12.824219 7.082032 0 12.824219 5.742188 12.824219 12.824219zm0 0" fill="#ffe046"/><path d="m423.539062 335.199219c0 7.085937-5.746093 12.828125-12.828124 12.828125-7.085938 0-12.828126-5.742188-12.828126-12.828125 0-7.082031 5.742188-12.824219 12.828126-12.824219 7.082031 0 12.828124 5.742188 12.828124 12.824219zm0 0" fill="#ffe046"/><path d="m56.097656 368.28125h-37.023437c-10.539063 0-19.074219-8.539062-19.074219-19.074219v-47.085937h37.023438v47.085937c0 10.535157 8.539062 19.074219 19.074218 19.074219zm0 0" fill="#62a6fd"/><path d="m56.097656 368.28125h-37.023437c-10.539063 0-19.074219-8.539062-19.074219-19.074219v-47.085937h37.023438v47.085937c0 10.535157 8.539062 19.074219 19.074218 19.074219zm0 0" fill="#62a6fd"/><path d="m117.835938 26.097656h162.023437c8.867187 0 16.058594 7.191406 16.058594 16.058594v219.121094c0 8.871094-7.191407 16.058594-16.058594 16.058594h-162.023437c-8.867188 0-16.058594-7.1875-16.058594-16.058594v-219.121094c0-8.867188 7.191406-16.058594 16.058594-16.058594zm0 0" fill="#fff5f4"/><path d="m410.222656 211.695312c0 36.253907-29.390625 65.640626-65.644531 65.640626s-65.640625-29.386719-65.640625-65.640626c0-36.253906 29.386719-65.644531 65.640625-65.644531s65.644531 29.390625 65.644531 65.644531zm0 0" fill="#fff5f4"/><path d="m365.65625 273.878906c-6.621094 2.242188-13.710938 3.457032-21.082031 3.457032-36.253907 0-65.640625-29.386719-65.640625-65.640626 0-36.25 29.386718-65.648437 65.640625-65.648437 7.371093 0 14.460937 1.214844 21.082031 3.460937-25.917969 8.769532-44.578125 33.300782-44.578125 62.1875 0 28.890626 18.660156 53.414063 44.578125 62.183594zm0 0" fill="#ebe0da"/><path d="m376.597656 203.761719h-24.085937v-24.089844c0-4.382813-3.550781-7.933594-7.933594-7.933594s-7.933594 3.550781-7.933594 7.933594v24.089844h-24.085937c-4.382813 0-7.933594 3.550781-7.933594 7.933593 0 4.382813 3.550781 7.933594 7.933594 7.933594h24.085937v24.085938c0 4.382812 3.550781 7.933594 7.933594 7.933594s7.933594-3.550782 7.933594-7.933594v-24.085938h24.085937c4.382813 0 7.933594-3.550781 7.933594-7.933594 0-4.382812-3.550781-7.933593-7.933594-7.933593zm0 0" fill="#8ecb51"/><path d="m154.859375 277.335938h-37.023437c-8.867188 0-16.058594-7.191407-16.058594-16.058594v-219.121094c0-8.867188 7.191406-16.058594 16.058594-16.058594h37.023437c-8.867187 0-16.058594 7.191406-16.058594 16.058594v219.121094c0 8.867187 7.191407 16.058594 16.058594 16.058594zm0 0" fill="#ebe0da"/><path d="m258.316406 91.824219h-63.71875c-6.253906 0-11.371094-5.117188-11.371094-11.371094v-12.675781c0-6.253906 5.117188-11.371094 11.371094-11.371094h63.71875c6.253906 0 11.371094 5.117188 11.371094 11.371094v12.675781c0 6.253906-5.117188 11.371094-11.371094 11.371094zm0 0" fill="#aedb81"/><path d="m228.117188 169.425781h-33.519532c-6.253906 0-11.371094-5.117187-11.371094-11.371093v-12.675782c0-6.253906 5.117188-11.371094 11.371094-11.371094h33.519532c6.253906 0 11.371093 5.117188 11.371093 11.371094v12.675782c0 6.253906-5.117187 11.371093-11.371093 11.371093zm0 0" fill="#aedb81"/><path d="m244.191406 247.027344h-49.59375c-6.253906 0-11.371094-5.117188-11.371094-11.371094v-12.675781c0-6.253907 5.117188-11.371094 11.371094-11.371094h49.59375c6.253906 0 11.371094 5.117187 11.371094 11.371094v12.675781c0 6.253906-5.117188 11.371094-11.371094 11.371094zm0 0" fill="#aedb81"/><g fill="#8ecb51"><path d="m128.007812 67.207031h30.902344c4.378906 0 7.933594-3.554687 7.933594-7.9375 0-4.378906-3.554688-7.933593-7.933594-7.933593h-30.902344c-4.382812 0-7.933593 3.554687-7.933593 7.933593 0 4.382813 3.550781 7.9375 7.933593 7.9375zm0 0"/><path d="m158.910156 81.027344h-30.902344c-4.382812 0-7.933593 3.550781-7.933593 7.933594 0 4.382812 3.550781 7.933593 7.933593 7.933593h30.902344c4.378906 0 7.933594-3.550781 7.933594-7.933593 0-4.382813-3.554688-7.933594-7.933594-7.933594zm0 0"/><path d="m128.007812 144.808594h20.550782c4.382812 0 7.933594-3.550782 7.933594-7.933594s-3.550782-7.9375-7.933594-7.9375h-20.550782c-4.382812 0-7.933593 3.554688-7.933593 7.9375s3.550781 7.933594 7.933593 7.933594zm0 0"/><path d="m158.910156 158.625h-30.902344c-4.382812 0-7.933593 3.554688-7.933593 7.9375s3.550781 7.933594 7.933593 7.933594h30.902344c4.378906 0 7.933594-3.550782 7.933594-7.933594s-3.554688-7.9375-7.933594-7.9375zm0 0"/><path d="m158.910156 206.539062h-30.902344c-4.382812 0-7.933593 3.550782-7.933593 7.933594 0 4.382813 3.550781 7.933594 7.933593 7.933594h30.902344c4.378906 0 7.933594-3.550781 7.933594-7.933594 0-4.382812-3.554688-7.933594-7.933594-7.933594zm0 0"/><path d="m145.445312 236.230469h-17.4375c-4.382812 0-7.933593 3.550781-7.933593 7.933593 0 4.382813 3.550781 7.933594 7.933593 7.933594h17.4375c4.382813 0 7.933594-3.550781 7.933594-7.933594 0-4.382812-3.550781-7.933593-7.933594-7.933593zm0 0"/></g></svg>