<svg id="Layer_35" enable-background="new 0 0 64 64" height="512" viewBox="0 0 64 64" width="512" xmlns="http://www.w3.org/2000/svg"><path d="m45 44c3.31 0 6 2.69 6 6s-2.69 6-6 6-6-2.69-6-6c0-.7.13-1.37.35-2h5.65c-1.1 0-2 .9-2 2s.9 2 2 2 2-.9 2-2-.9-2-2-2z" fill="#fcd770"/><path d="m57 47v6l-2.71.68c-.04.1-.07.2-.12.3l1.44 2.38-4.25 4.25-2.38-1.44c-.1.05-.2.08-.3.12l-.68 2.71h-6l-.68-2.71c-.1-.04-.2-.07-.3-.12l-2.38 1.44-4.25-4.25 1.44-2.38c-.05-.1-.08-.2-.12-.3l-2.71-.68v-5h6.35c-.22.63-.35 1.3-.35 2 0 3.31 2.69 6 6 6s6-2.69 6-6-2.69-6-6-6v-2-4h3l.68 2.71c.1.04.2.07.3.12l2.38-1.44 4.25 4.25-1.44 2.38c.05.1.08.2.12.3z" fill="#ffc729"/><path d="m15 36v6 6h8v-6-6z" fill="#e6e9ed"/><path d="m8 2v6 6h8v-6-6z" fill="#e6e9ed"/><g fill="#48cfad"><path d="m16 2v6 6h22v-6-6z"/><path d="m23 36v6 6h10 6.35 5.65v-4-2-4-2z"/><path d="m40 22h22v8h-22z"/></g><path d="m32 22h8v8h-8z" fill="#e6e9ed"/><path d="m28 26-8 4v-4-4z" fill="#fcd770"/><path d="m59 14-3 4-3-4h3z" fill="#fcd770"/><path d="m56.865 43.481-5.346-5.347-2.136 1.281-.602-2.415h-2.781v-2h-32v14h18v4.781l2.415.603-1.28 2.135 5.346 5.347 2.136-1.281.602 2.415h7.562l.603-2.416 2.136 1.281 5.346-5.347-1.28-2.135 2.414-.602v-7.562l-2.416-.603zm-10.865 6.519c0 .551-.448 1-1 1s-1-.449-1-1 .448-1 1-1 1 .449 1 1zm-2-3h-20v-4h20zm-3.884 2h2.069c-.113.314-.185.648-.185 1 0 1.654 1.346 3 3 3s3-1.346 3-3c0-1.302-.839-2.402-2-2.816v-2.083c2.279.465 4 2.484 4 4.899 0 2.757-2.243 5-5 5s-5-2.243-5-5c0-.334.046-.668.116-1zm3.884-8h-20v-4h20zm-22-4v4h-6v-4zm-6 6h6v4h-6zm40 4.781v4.438l-1.949.487-.534.202-.465 1.142 1.296 2.16-3.139 3.138-2.159-1.296-1.22.503-.611 2.445h-4.438l-.611-2.446-1.22-.503-2.159 1.296-3.139-3.138 1.296-2.16-.496-1.218-2.452-.612v-3.219h4.087c-.049.332-.087.665-.087 1 0 3.86 3.141 7 7 7s7-3.14 7-7c0-3.519-2.614-6.432-6-6.92v-4.08h1.219l.611 2.446 1.22.503 2.159-1.296 3.139 3.138-1.296 2.158.496 1.22z"/><path d="m31 21v10h32v-10zm2 2h6v6h-6zm28 6h-20v-6h20z"/><path d="m28 51h2v2h-2z"/><path d="m24 51h2v2h-2z"/><path d="m3 48v-18c0-1.654 1.346-3 3-3h13v4.618l11.236-5.618-11.236-5.618v4.618h-13c-2.757 0-5 2.243-5 5v18c0 2.757 2.243 5 5 5h16v-2h-16c-1.654 0-3-1.346-3-3zm18-24.382 4.764 2.382-4.764 2.382z"/><path d="m39 1h-32v14h32zm-2 6h-20v-4h20zm-22-4v4h-6v-4zm-6 6h6v4h-6zm8 4v-4h20v4z"/><path d="m49 25h2v2h-2z"/><path d="m53 25h2v2h-2z"/><path d="m57 25h2v2h-2z"/><path d="m41 7h2v2h-2z"/><path d="m55 10v3h-4l5 6.667 5-6.667h-4v-3c0-1.654-1.346-3-3-3h-9v2h9c.552 0 1 .449 1 1zm1 6.333-1-1.333h2z"/></svg>