<svg height="512pt" viewBox="-71 0 512 512" width="512pt" xmlns="http://www.w3.org/2000/svg"><path d="m293.671875 163.605469c0 33.953125-15.589844 64.257812-39.988281 84.167969-8.410156 6.855468-15.265625 15.222656-20.253906 24.550781-6.003907 11.1875-9.316407 23.765625-9.417969 36.769531-.011719.21875-.011719.433594-.011719.65625v50.769531l-38.917969 66.0625-38.917969-66.0625v-50.953125c0-.160156 0-.3125-.007812-.472656-.070312-12.945312-3.261719-25.582031-9.175781-36.769531-4.828125-9.136719-11.460938-17.324219-19.71875-23.925781-25.085938-20.089844-41.066407-51.074219-40.753907-85.792969.535157-59.703125 49.953126-108.160157 109.65625-107.574219 59.472657.574219 107.507813 48.960938 107.507813 108.574219zm0 0" fill="#ffee9d"/><path d="m181.5 360.519531 21.25 36.070313-17.667969 29.992187-38.917969-66.0625v-50.953125c0-.160156 0-.3125-.007812-.472656-.070312-12.945312-3.261719-25.582031-9.175781-36.769531-4.828125-9.136719-11.460938-17.324219-19.71875-23.925781-25.085938-20.089844-41.066407-51.074219-40.753907-85.792969.535157-59.703125 49.953126-108.160157 109.65625-107.574219 5.671876.058594 11.234376.542969 16.667969 1.441406-51.003906 8.410156-90.507812 52.78125-90.992187 106.132813-.3125 34.71875 15.667968 65.703125 40.757812 85.792969 8.257813 6.601562 14.890625 14.789062 19.714844 23.925781 5.917969 11.1875 9.105469 23.824219 9.175781 36.769531.011719.160156.011719.3125.011719.472656zm0 0" fill="#ffe046"/><path d="m359.917969 475.160156c0 16.164063-13.105469 29.269532-29.269531 29.269532h-291.132813c-16.160156 0-29.265625-13.09375-29.265625-29.269532 0-73.707031 59.707031-133.753906 133.746094-133.753906h82.175781c74.03125 0 133.746094 60.046875 133.746094 133.753906zm0 0" fill="#fff5f4"/><path d="m45.585938 475.160156c0 16.175782 13.101562 29.269532 29.265624 29.269532h-35.335937c-16.160156 0-29.265625-13.09375-29.265625-29.269532 0-73.707031 59.707031-133.753906 133.746094-133.753906h35.332031c-74.039063 0-133.742187 60.046875-133.742187 133.753906zm0 0" fill="#ebe0da"/><path d="m233.429688 272.324219c-6.003907 11.1875-9.316407 23.765625-9.417969 36.769531h-77.855469c-.070312-12.945312-3.261719-25.582031-9.175781-36.769531zm0 0" fill="#ebe0da"/><path d="m146.15625 309.09375c.007812.160156.007812.3125.007812.472656v50.953125l38.917969 66.0625 38.917969-66.0625v-50.769531c0-.222656 0-.4375.011719-.65625zm0 0" fill="#fff5f4"/><path d="m202.75 396.589844-17.667969 29.992187-38.917969-66.0625v-50.953125c0-.160156 0-.3125-.007812-.472656h35.332031c.011719.160156.011719.3125.011719.472656v50.953125zm0 0" fill="#ebe0da"/><path d="m199.902344 446.507812h-29.636719c-5.988281 0-10.886719-4.898437-10.886719-10.886718v-25.402344c0-5.988281 4.898438-10.886719 10.886719-10.886719h29.636719c5.988281 0 10.886718 4.898438 10.886718 10.886719v25.402344c0 5.988281-4.898437 10.886718-10.886718 10.886718zm0 0" fill="#81b8fd"/><path d="m201.152344 446.507812h-32.707032l-17.234374 57.921876h67.746093zm0 0" fill="#a0cafe"/><g fill="#c8bebc"><path d="m128.589844 317.394531-30.84375 32.175781 24.082031 75.871094c3.425781 6.261719 12.21875 8.257813 18.492187 4.195313l44.761719-28.992188-48.5-82.320312c-1.695312-2.878907-5.675781-3.34375-7.992187-.929688zm0 0"/><path d="m241.578125 317.394531 30.84375 32.175781-24.085937 75.871094c-3.421876 6.261719-12.21875 8.257813-18.488282 4.195313l-44.761718-28.992188 48.5-82.320312c1.695312-2.878907 5.675781-3.34375 7.992187-.929688zm0 0"/><path d="m181.488281 309.09375h-35.332031c-.070312-12.945312-3.261719-25.582031-9.175781-36.769531h35.332031c5.917969 11.1875 9.105469 23.824219 9.175781 36.769531zm0 0"/></g><path d="m360.804688 477.414062c-3.96875-1.34375-8.257813.777344-9.609376 4.734376-2.988281 8.792968-11.246093 14.707031-20.546874 14.707031h-34.902344v-49.917969c0-4.179688-3.390625-7.570312-7.570313-7.570312-4.183593 0-7.574219 3.390624-7.574219 7.570312v49.917969h-56.054687l-14.152344-46.0625c8.816407-6.097657 7.964844-15.078125 7.964844-19.578125l7.367187 4.777344c12.203126 7.878906 27.207032.332031 29.824219-8.257813l21.632813-68.15625c38.402344 16.78125 66.863281 52.183594 73.667968 96.140625.640626 4.101562 4.480469 6.960938 8.640626 6.320312 4.140624-.636718 6.964843-4.503906 6.328124-8.644531-7.671874-49.59375-41.566406-92-89-110.179687l-34.382812-35.871094c-2.925781-3.03125-7.78125-3.144531-10.816406-.113281.730468-20.773438 10.417968-40.1875 26.84375-53.585938 9.734375-7.945312 18.078125-17.34375 24.792968-27.9375 2.238282-3.53125 1.191407-8.210937-2.339843-10.449219-3.535157-2.238281-8.210938-1.191406-10.449219 2.339844-15.511719 24.46875-27.410156 23.945313-41.464844 47.15625h-16.816406v-70.417968h4.738281c17.148438 0 31.101563-13.949219 31.101563-31.097657 0-14.054687-11.4375-25.492187-25.492188-25.492187-14.054687 0-25.492187 11.4375-25.492187 25.492187v15.957031h-23.917969v-15.957031c0-14.054687-11.4375-25.492187-25.492188-25.492187-14.054687 0-25.492187 11.4375-25.492187 25.492187 0 17.148438 13.953125 31.097657 31.101563 31.097657h4.738281v70.417968h-16.523438c-5.070312-8.433594-11.613281-15.980468-19.464843-22.265625-24.101563-19.296875-37.921876-48.050781-37.921876-78.882812.238282-56.121094 45.613282-101.261719 102.023438-101.007813 66.109375.644532 114.875 64.78125 95.949219 129.429688-1.175781 4.015625 1.125 8.21875 5.140625 9.394531s8.21875-1.128906 9.394531-5.140625c11.320313-38.679688 2.25-82.910156-28.980469-114.429688-72.4375-73.105468-198.191406-22.089843-198.671875 81.753907 0 35.453125 15.894531 68.515625 43.601563 90.703125 15.96875 12.785156 25.34375 31.96875 26.003906 52.90625-3.050781-3.027344-7.894531-2.882813-10.800781.128906l-34.3125 35.800781c-17.273438 6.613281-33.214844 16.636719-46.925781 29.71875-3.027344 2.878907-3.136719 7.675781-.25 10.703125 2.886718 3.027344 7.679687 3.140625 10.699218.25 10.691406-10.195312 22.886719-18.300781 36.070313-24.125 23.097656 72.734375 21.636719 68.386719 22.171875 69.382813 5.507812 10.054687 19.210937 13.40625 29.253906 6.917969l7.371094-4.777344c0 4.371094-.894532 13.09375 7.550781 19.285156l-13.800781 46.355469h-55.992188v-49.917969c0-4.179688-3.390625-7.570312-7.574218-7.570312-4.179688 0-7.570313 3.390624-7.570313 7.570312v49.917969h-34.90625c-11.960937 0-21.691406-9.730469-21.691406-21.695313 0-24.824218 7.207031-48.839844 20.835937-69.476562 2.300782-3.480469 1.34375-8.175782-2.152344-10.488282-3.480468-2.300781-8.1875-1.34375-10.488281 2.152344-15.273437 23.105469-23.339843 50.019532-23.339843 77.8125 0 20.3125 16.527343 36.839844 36.835937 36.839844h291.132813c15.789062 0 29.8125-10.046875 34.890624-24.984375 1.34375-3.960937-.777343-8.261719-4.734374-9.601563zm-148.617188-314.175781c0-5.707031 4.640625-10.347656 10.347656-10.347656 5.707032 0 10.347656 4.640625 10.347656 10.347656 0 8.796875-7.15625 15.957031-15.957031 15.957031h-4.738281zm26.230469 161.804688c12.839843 13.386719 7.210937 7.519531 25.429687 26.519531-1.253906 3.976562 1.515625-4.753906-22.441406 70.699219-1.445312 1.921875-4.914062 2.644531-7.441406 1.019531-19.710938-12.761719-11.109375-7.191406-38.671875-25.046875.886719-1.507813 38.554687-65.433594 43.125-73.191406zm-31.683594 23.9375c-18.214844 30.914062-13.761719 23.359375-21.652344 36.746093-7.914062-13.429687-3.398437-5.769531-21.648437-36.746093zm-52.21875-15.144531-.777344-1.320313v-15.855469h62.691407v15.855469l-.777344 1.320313zm48.699219 87.566406v14.214844c0 1.796874-1.515625 3.320312-3.3125 3.320312h-29.640625c-1.796875 0-3.308594-1.523438-3.308594-3.320312v-14.214844l18.128906-11.738282zm-30.089844-227.066406h23.917969v70.417968h-23.917969zm-19.882812-15.140626c-8.800782 0-15.957032-7.160156-15.957032-15.957031 0-5.707031 4.640625-10.347656 10.347656-10.347656 5.707032 0 10.347657 4.640625 10.347657 10.347656v15.957031zm68.484374 100.699219c-2.539062 6.925781-4.195312 14.179688-4.898437 21.621094h-63.457031c-.671875-7.476563-2.277344-14.730469-4.742188-21.621094zm-90.1875 144.09375c-1.171874-.292969-2.160156-.910156-2.777343-1.726562-.855469-2.691407-20.984375-66.109375-22.441407-70.699219 18.964844-19.777344 13.160157-13.726562 25.429688-26.519531 5.554688 9.429687 39.464844 66.980469 43.125 73.191406-42.292969 27.394531-39.824219 26.648437-43.335938 25.753906zm29.820313 72.867188 12.730469-42.773438h21.472656l13.144531 42.773438zm0 0"/><path d="m185.082031 39.878906c4.183594 0 7.574219-3.390625 7.574219-7.574218v-24.734376c0-4.179687-3.390625-7.570312-7.574219-7.570312-4.179687 0-7.570312 3.390625-7.570312 7.570312v24.734376c0 4.183593 3.390625 7.574218 7.570312 7.574218zm0 0"/><path d="m101.523438 57.625c1.402343 2.429688 3.945312 3.789062 6.5625 3.789062 5.773437 0 9.476562-6.289062 6.550781-11.359374l-12.367188-21.421876c-2.089843-3.621093-6.722656-4.859374-10.34375-2.769531-3.621093 2.089844-4.863281 6.722657-2.769531 10.34375zm0 0"/><path d="m26.953125 105.183594c23.28125 13.441406 22.503906 13.382812 25.199219 13.382812 7.714844 0 10.488281-10.265625 3.792968-14.132812l-21.421874-12.367188c-3.621094-2.089844-8.253907-.847656-10.34375 2.773438-2.089844 3.621094-.847657 8.253906 2.773437 10.34375zm0 0"/><path d="m32.304688 196.019531c4.183593 0 7.574218-3.390625 7.574218-7.570312 0-4.183594-3.390625-7.574219-7.574218-7.574219h-24.734376c-4.179687 0-7.570312 3.390625-7.570312 7.574219 0 4.179687 3.390625 7.570312 7.570312 7.570312zm0 0"/><path d="m50.054688 258.894531-21.421876 12.367188c-6.683593 3.859375-3.925781 14.132812 3.792969 14.132812 2.726563 0 1.996094.011719 25.199219-13.382812 3.621094-2.09375 4.863281-6.722657 2.773438-10.34375-2.089844-3.625-6.722657-4.863281-10.34375-2.773438zm0 0"/><path d="m262.082031 61.414062c2.617188 0 5.160157-1.359374 6.5625-3.789062l12.367188-21.417969c2.089843-3.621093.851562-8.253906-2.769531-10.34375-3.621094-2.089843-8.253907-.851562-10.34375 2.769531l-12.367188 21.421876c-2.921875 5.0625.769531 11.359374 6.550781 11.359374zm0 0"/><path d="m321.792969 117.550781 21.421875-12.367187c3.621094-2.09375 4.863281-6.722656 2.769531-10.34375-2.089844-3.621094-6.71875-4.863282-10.339844-2.773438l-21.421875 12.367188c-3.621094 2.09375-4.863281 6.722656-2.769531 10.34375 2.089844 3.621094 6.71875 4.863281 10.339844 2.773437zm0 0"/><path d="m362.59375 180.875h-24.734375c-4.179687 0-7.570313 3.390625-7.570313 7.574219 0 4.179687 3.390626 7.570312 7.570313 7.570312h24.734375c4.183594 0 7.574219-3.390625 7.574219-7.570312 0-4.183594-3.390625-7.574219-7.574219-7.574219zm0 0"/><path d="m312.539062 272.007812c23.285157 13.445313 22.507813 13.382813 25.199219 13.382813 7.714844 0 10.492188-10.265625 3.792969-14.128906l-21.417969-12.367188c-3.621093-2.09375-8.253906-.851562-10.34375 2.769531-2.089843 3.625-.851562 8.253907 2.769531 10.34375zm0 0"/></svg>